<svg width="35" height="14" viewBox="0 0 35 14" fill="none" xmlns="http://www.w3.org/2000/svg">
<path d="M2.268 8.896H5.088V10H0.9V1.66H2.268V8.896ZM9.10003 10.108C8.47603 10.108 7.91203 9.968 7.40803 9.688C6.90403 9.4 6.50803 9 6.22003 8.488C5.93203 7.968 5.78803 7.368 5.78803 6.688C5.78803 6.016 5.93603 5.42 6.23203 4.9C6.52803 4.38 6.93203 3.98 7.44403 3.7C7.95603 3.42 8.52803 3.28 9.16003 3.28C9.79203 3.28 10.364 3.42 10.876 3.7C11.388 3.98 11.792 4.38 12.088 4.9C12.384 5.42 12.532 6.016 12.532 6.688C12.532 7.36 12.38 7.956 12.076 8.476C11.772 8.996 11.356 9.4 10.828 9.688C10.308 9.968 9.73203 10.108 9.10003 10.108ZM9.10003 8.92C9.45203 8.92 9.78003 8.836 10.084 8.668C10.396 8.5 10.648 8.248 10.84 7.912C11.032 7.576 11.128 7.168 11.128 6.688C11.128 6.208 11.036 5.804 10.852 5.476C10.668 5.14 10.424 4.888 10.12 4.72C9.81603 4.552 9.48803 4.468 9.13603 4.468C8.78403 4.468 8.45603 4.552 8.15203 4.72C7.85603 4.888 7.62003 5.14 7.44403 5.476C7.26803 5.804 7.18003 6.208 7.18003 6.688C7.18003 7.4 7.36003 7.952 7.72003 8.344C8.08803 8.728 8.54803 8.92 9.10003 8.92ZM16.5484 3.28C17.0604 3.28 17.5124 3.384 17.9044 3.592C18.3044 3.792 18.6164 4.044 18.8404 4.348V3.388H20.2204V10.108C20.2204 10.716 20.0924 11.256 19.8364 11.728C19.5804 12.208 19.2084 12.584 18.7204 12.856C18.2404 13.128 17.6644 13.264 16.9924 13.264C16.0964 13.264 15.3524 13.052 14.7604 12.628C14.1684 12.212 13.8324 11.644 13.7524 10.924H15.1084C15.2124 11.268 15.4324 11.544 15.7684 11.752C16.1124 11.968 16.5204 12.076 16.9924 12.076C17.5444 12.076 17.9884 11.908 18.3244 11.572C18.6684 11.236 18.8404 10.748 18.8404 10.108V9.004C18.6084 9.316 18.2924 9.58 17.8924 9.796C17.5004 10.004 17.0524 10.108 16.5484 10.108C15.9724 10.108 15.4444 9.964 14.9644 9.676C14.4924 9.38 14.1164 8.972 13.8364 8.452C13.5644 7.924 13.4284 7.328 13.4284 6.664C13.4284 6 13.5644 5.412 13.8364 4.9C14.1164 4.388 14.4924 3.992 14.9644 3.712C15.4444 3.424 15.9724 3.28 16.5484 3.28ZM18.8404 6.688C18.8404 6.232 18.7444 5.836 18.5524 5.5C18.3684 5.164 18.1244 4.908 17.8204 4.732C17.5164 4.556 17.1884 4.468 16.8364 4.468C16.4844 4.468 16.1564 4.556 15.8524 4.732C15.5484 4.9 15.3004 5.152 15.1084 5.488C14.9244 5.816 14.8324 6.208 14.8324 6.664C14.8324 7.12 14.9244 7.52 15.1084 7.864C15.3004 8.208 15.5484 8.472 15.8524 8.656C16.1644 8.832 16.4924 8.92 16.8364 8.92C17.1884 8.92 17.5164 8.832 17.8204 8.656C18.1244 8.48 18.3684 8.224 18.5524 7.888C18.7444 7.544 18.8404 7.144 18.8404 6.688ZM25.8304 2.512C25.5824 2.512 25.3744 2.428 25.2064 2.26C25.0384 2.092 24.9544 1.884 24.9544 1.636C24.9544 1.388 25.0384 1.18 25.2064 1.012C25.3744 0.844 25.5824 0.76 25.8304 0.76C26.0704 0.76 26.2744 0.844 26.4424 1.012C26.6104 1.18 26.6944 1.388 26.6944 1.636C26.6944 1.884 26.6104 2.092 26.4424 2.26C26.2744 2.428 26.0704 2.512 25.8304 2.512ZM26.5024 3.388V10H25.1344V3.388H26.5024ZM31.6344 3.28C32.1544 3.28 32.6184 3.388 33.0264 3.604C33.4424 3.82 33.7664 4.14 33.9984 4.564C34.2304 4.988 34.3464 5.5 34.3464 6.1V10H32.9904V6.304C32.9904 5.712 32.8424 5.26 32.5464 4.948C32.2504 4.628 31.8464 4.468 31.3344 4.468C30.8224 4.468 30.4144 4.628 30.1104 4.948C29.8144 5.26 29.6664 5.712 29.6664 6.304V10H28.2984V3.388H29.6664V4.144C29.8904 3.872 30.1744 3.66 30.5184 3.508C30.8704 3.356 31.2424 3.28 31.6344 3.28Z" fill="#10151F"/>
</svg>
